<svg width="24" height="26" viewBox="0 0 24 26" fill="none" xmlns="http://www.w3.org/2000/svg">
<path d="M0 17.2609V1C0 0.447715 0.447716 0 1 0H23C23.5523 0 24 0.447716 24 1V17.2609C24 17.8132 23.5523 18.2609 23 18.2609H15L12 25.5652L8.86957 18.2609H1C0.447715 18.2609 0 17.8132 0 17.2609Z" fill="#F77722"/>
<path d="M8.21671 8.6979C8.45234 7.93194 8.8801 7.1199 9.5 6.5C9.63873 6.36127 9.78709 6.22253 9.93973 6.0798C10.8873 5.19366 12 4.15317 12 2C12 4.15317 13.1127 5.19366 14.0603 6.0798C14.2129 6.22253 14.3613 6.36127 14.5 6.5C15.1199 7.1199 15.5477 7.93194 15.7833 8.6979C15.9237 9.10608 16 9.54414 16 10C16 12.2091 14.2091 14 12 14C9.79086 14 8 12.2091 8 10C8 9.54414 8.07626 9.10608 8.21671 8.6979Z" fill="white"/>
</svg>
