<svg width="24" height="26" viewBox="0 0 24 26" fill="none" xmlns="http://www.w3.org/2000/svg">
<path d="M0 17.2609V1C0 0.447715 0.447716 0 1 0H23C23.5523 0 24 0.447716 24 1V17.2609C24 17.8132 23.5523 18.2609 23 18.2609H15L12 25.5652L8.86957 18.2609H1C0.447715 18.2609 0 17.8132 0 17.2609Z" fill="#9E9E9E"/>
<path fill-rule="evenodd" clip-rule="evenodd" d="M11.5556 7.80769L7.55556 5.26923H6.66667V4H17.3333V5.26923H16.4444L12.4444 7.80769H11.5556ZM9.77778 4.84615H11.1111V6.53846H10.2222V5.69231H9.77778V4.84615ZM12.8889 6.53846H13.7778V5.69231H14.2222V4.84615H12.8889V6.53846Z" fill="white"/>
<path d="M15.5556 11.6154C15.5556 12.55 15.1576 13.3962 14.5142 14.0087C14.4617 14.0586 14.4075 14.1071 14.3518 14.1538C13.7251 14.6805 12.9017 15 12 15C11.0983 15 10.2749 14.6805 9.64816 14.1538C8.91001 13.5337 8.44444 12.6263 8.44444 11.6154C8.44444 10.6807 8.84241 9.8346 9.48584 9.2221C9.53834 9.17213 9.59247 9.12371 9.64816 9.07692C10.2749 8.55031 11.0983 8.23077 12 8.23077C12.9017 8.23077 13.7251 8.55031 14.3518 9.07692C15.09 9.69711 15.5556 10.6045 15.5556 11.6154Z" fill="white"/>
<path d="M15.6137 13.25C15.4485 13.5803 15.2349 13.8843 14.9815 14.1538H20V13.25H15.6137Z" fill="white"/>
<path d="M15.8194 12.75H20V9.07692H14.9815C15.6149 9.75058 16 10.6402 16 11.6154C16 12.0105 15.9368 12.3916 15.8194 12.75Z" fill="white"/>
<path d="M9.01852 14.1538H4V13.25H8.3863C8.55147 13.5803 8.76513 13.8843 9.01852 14.1538Z" fill="white"/>
<path d="M4 12.75V9.07692H9.01852C8.38514 9.75058 8 10.6402 8 11.6154C8 12.0105 8.06323 12.3916 8.18059 12.75H4Z" fill="white"/>
</svg>
