<svg width="24" height="26" viewBox="0 0 24 26" fill="none" xmlns="http://www.w3.org/2000/svg">
<path d="M0 17.2609V1C0 0.447715 0.447716 0 1 0H23C23.5523 0 24 0.447716 24 1V17.2609C24 17.8132 23.5523 18.2609 23 18.2609H15L12 25.5652L8.86957 18.2609H1C0.447715 18.2609 0 17.8132 0 17.2609Z" fill="#9E9E9E"/>
<path fill-rule="evenodd" clip-rule="evenodd" d="M7.2717 9.5434C6.32754 9.5434 5.54472 9.23266 4.92325 8.61119C4.30775 7.98374 4 7.20391 4 6.2717C4 5.33949 4.30775 4.56265 4.92325 3.94117C5.54472 3.31372 6.32754 3 7.2717 3C7.83939 3 8.36525 3.13445 8.84929 3.40336C9.33332 3.67227 9.71278 4.0338 9.98766 4.48795L8.59831 5.28571C8.47879 5.06461 8.29952 4.89131 8.06049 4.76582C7.82744 4.63436 7.56451 4.56862 7.2717 4.56862C6.76974 4.56862 6.36339 4.72698 6.05266 5.04369C5.74789 5.35443 5.59551 5.76376 5.59551 6.2717C5.59551 6.77963 5.74789 7.19196 6.05266 7.50867C6.36339 7.81941 6.76974 7.97478 7.2717 7.97478C7.56451 7.97478 7.82744 7.91203 8.06049 7.78654C8.29952 7.65508 8.47879 7.4758 8.59831 7.24873L9.98766 8.05545C9.71278 8.51558 9.33332 8.8801 8.84929 9.149C8.37123 9.41193 7.84537 9.5434 7.2717 9.5434ZM15.7914 8.60223C15.1579 9.22967 14.3811 9.5434 13.4608 9.5434C12.5406 9.5434 11.7607 9.22967 11.1213 8.60223C10.4879 7.9688 10.1712 7.19196 10.1712 6.2717C10.1712 5.35144 10.4879 4.57759 11.1213 3.95014C11.7607 3.31671 12.5406 3 13.4608 3C14.3811 3 15.1579 3.31671 15.7914 3.95014C16.4308 4.57759 16.7505 5.35144 16.7505 6.2717C16.7505 7.19196 16.4308 7.9688 15.7914 8.60223ZM12.2507 7.49971C12.5734 7.81642 12.9768 7.97478 13.4608 7.97478C13.9449 7.97478 14.3482 7.81642 14.6709 7.49971C14.9936 7.17702 15.1549 6.76768 15.1549 6.2717C15.1549 5.77572 14.9936 5.36937 14.6709 5.05266C14.3482 4.72997 13.9449 4.56862 13.4608 4.56862C12.9768 4.56862 12.5734 4.72997 12.2507 5.05266C11.9281 5.36937 11.7667 5.77572 11.7667 6.2717C11.7667 6.76768 11.9281 7.17702 12.2507 7.49971ZM17.2571 10.1319V9.33418L18.5389 8.08824C18.7122 7.91495 18.7988 7.77153 18.7988 7.65799C18.7988 7.52653 18.7211 7.46079 18.5658 7.46079C18.4044 7.46079 18.267 7.59226 18.1534 7.85519L17.1943 7.31738C17.4752 6.71981 17.9473 6.42102 18.6106 6.42102C18.987 6.42102 19.3067 6.52858 19.5697 6.74371C19.8326 6.95883 19.9641 7.2367 19.9641 7.57732C19.9641 7.95379 19.7549 8.33623 19.3366 8.72466L18.9602 9.0832H19.9999V10.1319H17.2571ZM12.6667 10.1111V13.6871L14.1121 11.5191L15.2215 12.2587L12.0001 17.0907L8.77872 12.2587L9.88812 11.5191L11.3334 13.687V10.1111H12.6667Z" fill="white"/>
</svg>
