<svg width="24" height="26" viewBox="0 0 24 26" fill="none" xmlns="http://www.w3.org/2000/svg">
<path d="M0 17.2609V1C0 0.447715 0.447716 0 1 0H23C23.5523 0 24 0.447716 24 1V17.2609C24 17.8132 23.5523 18.2609 23 18.2609H15L12 25.5652L8.86957 18.2609H1C0.447715 18.2609 0 17.8132 0 17.2609Z" fill="#9E9E9E"/>
<path d="M12.936 13.0411C12.6323 13.0411 12.3792 12.9443 12.1768 12.7507C11.9744 12.5535 11.873 12.3032 11.873 12C11.873 11.6968 11.9744 11.4484 12.1768 11.2548C12.3792 11.0575 12.6323 10.9589 12.936 10.9589C13.2397 10.9589 13.4927 11.0575 13.6953 11.2548C13.8977 11.4484 13.999 11.6968 13.999 12C13.999 12.3032 13.8977 12.5535 13.6953 12.7507C13.4927 12.9443 13.2397 13.0411 12.936 13.0411Z" fill="white"/>
<path fill-rule="evenodd" clip-rule="evenodd" d="M7.25 8V5.30774C7.25 4.68213 7.56396 3.89465 8.33105 3.28015C9.10132 2.66284 10.2844 2.25 12 2.25C15.4805 2.25 16.75 4.15588 16.75 5.30774V8H18V16H6V8H7.25ZM8.75 5.30774C8.75 5.16406 8.83594 4.79761 9.26904 4.45068C9.69849 4.10645 10.5156 3.75 12 3.75C13.4661 3.75 14.2834 4.13562 14.72 4.49927C14.9417 4.6842 15.0779 4.87329 15.1567 5.0282C15.1787 5.07129 15.196 5.11121 15.2095 5.14709C15.2205 5.17603 15.2288 5.20239 15.2349 5.22559C15.2449 5.26343 15.2483 5.28845 15.2495 5.30005L15.25 5.30774V8H8.75V5.30774ZM7.57935 13.4302C7.96924 13.8101 8.46045 14 9.05273 14C9.4126 14 9.74268 13.9197 10.0425 13.7589C10.3462 13.5945 10.5845 13.3717 10.7568 13.0905L9.88501 12.5973C9.82959 12.6997 9.75391 12.7864 9.65771 12.8569C9.62354 12.882 9.58691 12.905 9.54761 12.926C9.40137 13.0027 9.23657 13.0411 9.05273 13.0411C8.73779 13.0411 8.48291 12.9462 8.28784 12.7561C8.09668 12.5625 8.00098 12.3105 8.00098 12C8.00098 11.6895 8.09668 11.4392 8.28784 11.2493C8.48291 11.0557 8.73779 10.9589 9.05273 10.9589C9.23657 10.9589 9.40137 10.9991 9.54761 11.0795C9.69775 11.1561 9.81006 11.2621 9.88501 11.3972L10.7568 10.9095C10.5845 10.632 10.3462 10.411 10.0425 10.2466C9.91992 10.1802 9.79297 10.1272 9.66187 10.0876C9.46802 10.0292 9.26514 10 9.05273 10C8.46045 10 7.96924 10.1918 7.57935 10.5753C7.19312 10.9552 7 11.4302 7 12C7 12.5698 7.19312 13.0466 7.57935 13.4302ZM12.936 14C13.5134 14 14.0007 13.8082 14.3982 13.4247C14.7993 13.0375 15 12.5625 15 12C15 11.4375 14.7993 10.9644 14.3982 10.5808C14.0007 10.1936 13.5134 10 12.936 10C12.3586 10 11.8694 10.1936 11.468 10.5808C11.0708 10.9644 10.8721 11.4375 10.8721 12C10.8721 12.5625 11.0708 13.0375 11.468 13.4247C11.8694 13.8082 12.3586 14 12.936 14ZM15.0447 15V14.3551L15.9585 13.3478C16.082 13.2078 16.1438 13.0918 16.1438 13C16.1438 12.8937 16.0884 12.8406 15.9775 12.8406C15.8625 12.8406 15.7646 12.9469 15.6836 13.1594L15 12.7246C15.2002 12.2416 15.5366 12 16.0095 12C16.2781 12 16.5059 12.0869 16.6934 12.2609C16.8132 12.3722 16.8948 12.5044 16.938 12.6572C16.9622 12.7432 16.9744 12.8357 16.9744 12.9348C16.9744 13.2391 16.8254 13.5483 16.5271 13.8623L16.2588 14.1522H17V15H15.0447Z" fill="white"/>
</svg>
