<svg width="43" height="26" viewBox="0 0 43 26" fill="none" xmlns="http://www.w3.org/2000/svg">
<path fill-rule="evenodd" clip-rule="evenodd" d="M32 6.5H15V5H32V6.5Z" fill="black"/>
<path fill-rule="evenodd" clip-rule="evenodd" d="M13.5 5.75C13.5 6.16421 13.1642 6.5 12.75 6.5C12.3358 6.5 12 6.16421 12 5.75C12 5.33579 12.3358 5 12.75 5C13.1642 5 13.5 5.33579 13.5 5.75Z" fill="black"/>
<path fill-rule="evenodd" clip-rule="evenodd" d="M32 11H15V9.5H32V11Z" fill="black"/>
<path fill-rule="evenodd" clip-rule="evenodd" d="M13.5 10.25C13.5 10.6642 13.1642 11 12.75 11C12.3358 11 12 10.6642 12 10.25C12 9.83579 12.3358 9.5 12.75 9.5C13.1642 9.5 13.5 9.83579 13.5 10.25Z" fill="black"/>
<path fill-rule="evenodd" clip-rule="evenodd" d="M32 15.5H15V14H32V15.5Z" fill="black"/>
<path fill-rule="evenodd" clip-rule="evenodd" d="M13.5 14.75C13.5 15.1642 13.1642 15.5 12.75 15.5C12.3358 15.5 12 15.1642 12 14.75C12 14.3358 12.3358 14 12.75 14C13.1642 14 13.5 14.3358 13.5 14.75Z" fill="black"/>
<path fill-rule="evenodd" clip-rule="evenodd" d="M32 20H15V18.5H32V20Z" fill="black"/>
<path fill-rule="evenodd" clip-rule="evenodd" d="M13.5 19.25C13.5 19.6642 13.1642 20 12.75 20C12.3358 20 12 19.6642 12 19.25C12 18.8358 12.3358 18.5 12.75 18.5C13.1642 18.5 13.5 18.8358 13.5 19.25Z" fill="black"/>
</svg>
