<svg width="24" height="26" viewBox="0 0 24 26" fill="none" xmlns="http://www.w3.org/2000/svg">
<path d="M0 17.2609V1C0 0.447715 0.447716 0 1 0H23C23.5523 0 24 0.447716 24 1V17.2609C24 17.8132 23.5523 18.2609 23 18.2609H15L12 25.5652L8.86957 18.2609H1C0.447715 18.2609 0 17.8132 0 17.2609Z" fill="black"/>
<path fill-rule="evenodd" clip-rule="evenodd" d="M19.5 3H16.111V6.30189H12.7221V5.83019H11.2696V6.30189H6.74362L5.21791 5.12264H4.73377L4 7.0094L4.73377 8.89623V15.5H5.21791V8.89623L6.74362 7.71698H11.2696V8.89623H10.5434L8.60688 15.5H10.0593L11.0276 11.7264H11.5117V15.5H12.48V11.7264H12.9641L13.9324 15.5H15.3848L13.4483 8.89623H12.7221V7.71698H16.111V12.434H17.4216L18.9727 10.9227L19.5 9.8953V3ZM17.3214 4.17925H18.2897V6.06604H17.3214V4.17925ZM18.2897 7.95283H17.3214V9.83962H18.2897V7.95283Z" fill="white"/>
</svg>
