<svg width="43" height="26" viewBox="0 0 43 26" fill="none" xmlns="http://www.w3.org/2000/svg">
<path fill-rule="evenodd" clip-rule="evenodd" d="M12.2071 7.08582L22.6854 17.5641L30.3448 9.42586L39.8715 11.0136L39.5427 12.9864L31.0694 11.5742L22.7289 20.436L12.2071 9.91424L5.41421 16.7071L4 15.2929L12.2071 7.08582Z" fill="black"/>
<path d="M15 9C15 10.6569 13.6569 12 12 12C10.3431 12 9 10.6569 9 9C9 7.34315 10.3431 6 12 6C13.6569 6 15 7.34315 15 9Z" fill="black"/>
<path d="M26 18C26 19.6569 24.6569 21 23 21C21.3431 21 20 19.6569 20 18C20 16.3431 21.3431 15 23 15C24.6569 15 26 16.3431 26 18Z" fill="black"/>
<path d="M34 11C34 12.6569 32.6569 14 31 14C29.3431 14 28 12.6569 28 11C28 9.34315 29.3431 8 31 8C32.6569 8 34 9.34315 34 11Z" fill="black"/>
</svg>
